<svg xmlns="http://www.w3.org/2000/svg" width="130" height="130"><defs><linearGradient id="b" x1=".5" x2=".5" y2="1.189" gradientUnits="objectBoundingBox"><stop offset="0" stop-color="#f1be48"/><stop offset="1" stop-color="#c8102e"/></linearGradient><clipPath id="a"><path transform="translate(979 4751)" fill="none" d="M0 0h130v130H0z"/></clipPath></defs><g transform="translate(-979 -4751)" clip-path="url(#a)"><path data-name="Path 1681" d="M-4324.044-2473.41h41.309l7 7.146 6.207-7.146h42.174v53.6h-37.8l-6.2 3.332-4.378 7.824-5.722-9-5.075-2.86-38.367.7Z" transform="translate(5319.754 7256.299)" fill="url(#b)"/><path data-name="Path 1678" d="M995.421 4837.117v-53.369h39.08c2.7 0 5.288 1.521 7.193 4.233l2.441 3.477v57.161l-2.4-5.1c-1.884-3.995-5.05-6.4-8.444-6.4Z" fill="none" stroke="#7c2529" stroke-linejoin="round" stroke-width="3"/><path data-name="Line 92" fill="none" stroke="#fff" stroke-linejoin="round" stroke-width="3" d="M1029.589 4803.734h-21.651"/><path data-name="Line 93" fill="none" stroke="#fff" stroke-linejoin="round" stroke-width="3" d="M1029.589 4819.069h-21.651"/><path data-name="Path 1679" d="M1092.849 4837.117v-53.369h-39.079c-2.7 0-5.288 1.521-7.193 4.233l-2.442 3.477v57.161l2.4-5.1c1.884-3.995 5.05-6.4 8.444-6.4Z" fill="none" stroke="#7c2529" stroke-linejoin="round" stroke-width="3"/><path data-name="Line 94" fill="none" stroke="#fff" stroke-linejoin="round" stroke-width="3" d="M1058.682 4803.734h21.651"/><path data-name="Line 95" fill="none" stroke="#fff" stroke-linejoin="round" stroke-width="3" d="M1058.682 4819.069h21.651"/></g></svg>