<svg xmlns="http://www.w3.org/2000/svg" xmlns:xlink="http://www.w3.org/1999/xlink" width="130" height="130"><defs><linearGradient id="a" x1=".5" x2=".53" y2="1.47" gradientUnits="objectBoundingBox"><stop offset="0" stop-color="#f1be48"/><stop offset="1" stop-color="#c8102e"/></linearGradient><linearGradient id="c" x2=".5" y2="1.635" xlink:href="#a"/><linearGradient id="d" x2=".5" y2="1.38" xlink:href="#a"/><clipPath id="b"><path transform="translate(115 4751)" fill="none" d="M0 0h130v130H0z"/></clipPath><clipPath id="e"><path data-name="Rectangle 410" fill="none" stroke="#7c2529" stroke-width="3" d="M.12.237h116v73H.12z"/></clipPath></defs><g transform="translate(-115 -4751)" clip-path="url(#b)"><g data-name="Group 950"><path data-name="Line 96" fill="none" stroke="#7c2529" stroke-miterlimit="10" stroke-width="3" d="m145.745 4820.69-.226 10.982"/><path data-name="Line 97" fill="none" stroke="#7c2529" stroke-miterlimit="10" stroke-width="3" d="m162.774 4820.69.251 10.982"/><path data-name="Line 98" fill="none" stroke="#7c2529" stroke-miterlimit="10" stroke-width="3" d="m189.66 4818.051-.275 11.795"/><path data-name="Line 99" fill="none" stroke="#7c2529" stroke-miterlimit="10" stroke-width="3" d="m210.084 4818.051.3 11.795"/><path data-name="Path 1682" d="m-4635.4-2933.66 1.411-9.192 8.116-4.816h11.218l7.7 8.826v6.867h-3.88l-5.472-4.218-6.124 5.279-12.967-1.061Z" transform="translate(4775.463 7732.982)" fill="url(#a)"/><path data-name="Path 1683" d="m-4603.886-2901.1 14.741-5.918 6.573 4.284h9.151l6-4.284 20.787 7.151 2.813 5.83v8.925l-50.926.011-1.374-11.813Z" transform="translate(4778.508 7736.909)" fill="url(#c)"/><path data-name="Path 1686" d="m185.336 4798.853.969-9.088 6.908-6.18 10.2-.782 7.038 4.1 4.466 6.89v5.9l-5.134-.848-4.549-3.3-5.092 3.3-9.469 1.739-6.646-1.739Z" fill="none"/><path data-name="Path 1687" d="m-4582.616-2762.285 3.374-7.343 7.364-4.231 10.387 1 8.05 7.622v8.005l-5.75-1.036-3.989-2.973-6.021 4.009-6.894.983-6.52-.983Z" transform="translate(4767.972 7556.686)" fill="url(#d)"/><g data-name="Group 901"><g data-name="Group 842" transform="translate(121.88 4779.763)" clip-path="url(#e)" fill="none" stroke="#7c2529" stroke-miterlimit="10" stroke-width="3"><path data-name="Path 1633" d="M3.059 70.415v-5.382a8.039 8.039 0 0 1 5.3-7.531l15.27-5.6 3.652 3.132a7.691 7.691 0 0 0 10.2 0l3.652-3.132 15.27 5.6a8.039 8.039 0 0 1 5.3 7.531v5.378" stroke-linecap="square"/><path data-name="Path 1634" d="M62.91 18.963c0 21.064 10.651 25.071 13.875 25.071h2.392c3.218 0 13.918-4.949 13.918-25.071"/><path data-name="Path 1635" d="M79.257 3.117h-2.514a13.781 13.781 0 0 0-13.839 13.722v2.123l6.3 1.719a11.318 11.318 0 0 0 9.8-1.884l4.295-3.249.918.893a9.518 9.518 0 0 0 7.513 2.643l1.364-.122v-2.123A13.781 13.781 0 0 0 79.257 3.117Z"/><path data-name="Path 1636" d="M17.993 20.119c0 20.091 10.156 23.915 13.233 23.915h2.288c3.065 0 13.276-4.723 13.276-23.915"/><path data-name="Path 1637" d="M33.588 5.002h-2.4a13.141 13.141 0 0 0-13.195 13.092v2.019l6.008 1.646a10.8 10.8 0 0 0 9.348-1.8l4.093-3.1.881.857a9.085 9.085 0 0 0 7.164 2.521l1.3-.122v-2.021A13.145 13.145 0 0 0 33.588 5.002Z"/><path data-name="Path 1638" d="M55.789 32.379c-4.974 0-9-5.494-9-12.266"/><path data-name="Path 1639" d="M8.987 32.379c4.974 0 9-5.494 9-12.266"/><path data-name="Path 1640" d="m53.544 54.66 13.961-4.582 4.374 3.365a10.061 10.061 0 0 0 12.248 0l4.375-3.365 18.317 6.008a8.752 8.752 0 0 1 6.363 8.094v6.228" stroke-linecap="square"/></g></g></g></g></svg>