<svg xmlns="http://www.w3.org/2000/svg" width="130" height="130"><defs><clipPath id="a"><path transform="translate(655 3192)" fill="none" d="M0 0h130v130H0z"/></clipPath><clipPath id="c"><path data-name="Rectangle 464" fill="none" stroke="#7c2529" stroke-width="3" d="M0 0h82.872v83.537H0z"/></clipPath><linearGradient id="b" x1=".834" y1=".023" x2=".044" y2="1.248" gradientUnits="objectBoundingBox"><stop offset="0" stop-color="#f1be48"/><stop offset="1" stop-color="#c8102e"/></linearGradient></defs><g transform="translate(-655 -3192)" clip-path="url(#a)"><path data-name="Path 1764" d="m6606.73-1380.335 32.931-32.405-2.424-9.663 3.562-12.219 8.544-8.195 10.031-3.035h6.9l8.286 3.035 6.458 6.781 3.045 7.157 1.243 8.493-2.454 9.319-5.718 6.717-6.344 4.611-8.047 1.37-9.264-1.37-11.692 12.408h-5.4v5.1l-6.435.609v6.547h-6.121v5.385l-3.868 3.117h-13.233Z" transform="translate(-5926.071 4663.361)" fill="url(#b)"/><g data-name="Group 1237"><g data-name="Group 1236" transform="translate(678.564 3215.232)" clip-path="url(#c)" stroke="#7c2529" stroke-miterlimit="10" stroke-width="3"><path data-name="Path 1762" d="M56.836 2.265a23.779 23.779 0 0 0-21.889 33.054L2.264 68.003v13.271h13.054l3.767-3.767v-4.818h5.923v-6.475h6.475v-5.212h5.212l11.623-12.837a23.747 23.747 0 1 0 8.518-45.9Z" fill="none"/><path data-name="Path 1763" d="M68.154 21.24a5.739 5.739 0 1 1-5.737-5.737 5.736 5.736 0 0 1 5.737 5.737Z" fill="#fff"/></g></g><path data-name="Path 1765" d="m688.981 3286.705 30.824-30.824" fill="none" stroke="#fff" stroke-width="3"/></g></svg>