<svg xmlns="http://www.w3.org/2000/svg" xmlns:xlink="http://www.w3.org/1999/xlink" width="130" height="130"><defs><linearGradient id="a" x1=".5" x2=".5" y2="1.683" gradientUnits="objectBoundingBox"><stop offset="0" stop-color="#f1be48"/><stop offset="1" stop-color="#c8102e"/></linearGradient><linearGradient id="c" y1="-.061" y2="1.428" xlink:href="#a"/><clipPath id="b"><path transform="translate(1034 3208.399)" fill="none" d="M0 0h130v130H0z"/></clipPath><clipPath id="d"><path data-name="Rectangle 379" fill="none" stroke="#707070" stroke-width="4" d="M0 0h89.499v109.763H0z"/></clipPath></defs><g data-name="ICON–Admission_Financial_Aid" transform="translate(-1034 -3208.399)" clip-path="url(#b)"><g transform="translate(1.498 236.339)"><path data-name="Rectangle 415" transform="translate(1058 3043)" fill="url(#a)" d="M0 0h12v31H0z"/><g data-name="Group 837"><g data-name="Group 838" fill="none" stroke="#7c2529" stroke-miterlimit="10" stroke-width="3"><path data-name="Path 1631" d="m1097.796 3062.801 3.87.489 4.637-.582a6.672 6.672 0 0 0-1.195-13.29l-8.318 1.221c-1.089.084-2.089.159-2.565-.379-4.725-5.179-12.355-8.115-18.919-2.129h-4.424"/><path data-name="Path 1632" d="M1106.304 3062.708s11.738-2.609 14.471-3.178c9.323-9.6 14.295-3.178 16.225.5l-9.962 9.164s-9.856 4.181-14.123 5.16c-7.771 1.781-9.389 3.059-16.269 1.014l-25.764-5.863"/><path data-name="Rectangle 408" d="M1057.659 3042.703h13.224v30.855h-13.224z"/></g></g><ellipse data-name="Ellipse 48" cx="23.5" cy="24" rx="23.5" ry="24" transform="translate(1079.226 2983.704)" fill="url(#c)"/><g data-name="Group 839"><g data-name="Group 752" transform="translate(1052.501 2982.06)" clip-path="url(#d)" fill="none" stroke-width="3"><path data-name="Path 1659" d="M50.11 2.355a23.552 23.552 0 1 1-23.552 23.552A23.552 23.552 0 0 1 50.11 2.355Z" stroke="#7c2529"/><path data-name="Path 1566" d="M44.749 30.477c0 2.478 2.4 4.484 5.361 4.484s5.361-2.007 5.361-4.484-1.894-4.484-5.361-4.484c-3.58 0-5.361-2.007-5.361-4.484s2.4-4.484 5.361-4.484 5.36 2.01 5.36 4.485" stroke="#fff" stroke-miterlimit="10"/><path data-name="Line 40" stroke="#fff" stroke-miterlimit="10" d="M50.11 17.024v-4.805"/><path data-name="Line 41" stroke="#fff" stroke-miterlimit="10" d="M50.11 39.762v-4.805"/></g></g></g></g></svg>