<svg xmlns="http://www.w3.org/2000/svg" xmlns:xlink="http://www.w3.org/1999/xlink" width="130" height="130"><defs><linearGradient id="a" x1=".5" x2=".5" y2="1.348" gradientUnits="objectBoundingBox"><stop offset="0" stop-color="#f1be48"/><stop offset="1" stop-color="#c8102e"/></linearGradient><linearGradient id="c" x2=".51" y2="1.518" xlink:href="#a"/><clipPath id="b"><path transform="translate(655 3192)" fill="none" d="M0 0h130v130H0z"/></clipPath><clipPath id="d"><path data-name="Rectangle 465" fill="none" stroke="#7c2529" stroke-width="3" d="M0 0h102.79v108.311H0z"/></clipPath></defs><g data-name="ICON-Office of Diversity" transform="translate(-655 -3192)" clip-path="url(#b)"><path data-name="Path 1786" d="M5730.9-1382.554h36.03l4.862 3.892 16.772.6v24.583h-21.634l-2.937 4.629-6.209 1.4v-7.278h-30.328l-3.458-2.148v-4.516l-2.66-2.455v-4l3.548-1.516v-3.734l.609-2.361 4.027-.956-.755-3.533Z" transform="translate(-5050.605 4650.868)" fill="url(#a)"/><path data-name="Path 1735" d="M-2487.963-3647.141h17.3l4.492-2.963 3.006-1.906 7.563-.922 1.082 7.51h27.51l2.678 2.712-1.192 3.554 3.318 2.229-.981 3.943-2.337 1.625v3.313l-2.681 3.5-.946 2.286-2.205 3.752h-34.2l-6.831-3.752-15.581-1.023Z" transform="translate(3191.395 6864.868)" fill="url(#c)"/><g data-name="Group 1242"><g data-name="Group 1241" transform="translate(668.605 3202.845)" clip-path="url(#d)" fill="none" stroke="#7c2529" stroke-linecap="square" stroke-miterlimit="10" stroke-width="3"><path data-name="Path 1766" d="M14.074 27.997v-13.38a3.293 3.293 0 0 1 3.43-3.136 3.3 3.3 0 0 1 3.439 3.136v17.282"/><path data-name="Path 1767" d="M20.941 27.409V11.556a3.3 3.3 0 0 1 3.434-3.14 3.3 3.3 0 0 1 3.437 3.14v20.343"/><path data-name="Path 1768" d="M27.812 30.034V14.181a3.3 3.3 0 0 1 3.432-3.14 3.3 3.3 0 0 1 3.437 3.14v27.276"/><path data-name="Path 1769" d="M42.101 40.746v5.5s0 6.785-5.088 7.991v7.948"/><path data-name="Path 1770" d="M11.552 64.378s.149-6.188-2.35-7.9-2-9.617-2-9.617V18.738a3.294 3.294 0 0 1 3.435-3.136 3.294 3.294 0 0 1 3.434 3.136v12.85"/><path data-name="Path 1771" d="M81.427 36.805h13.376a3.3 3.3 0 0 0 3.136-3.432 3.3 3.3 0 0 0-3.136-3.437H77.524"/><path data-name="Path 1772" d="M82.011 29.934h15.858a3.3 3.3 0 0 0 3.14-3.434 3.3 3.3 0 0 0-3.14-3.437H77.521"/><path data-name="Path 1773" d="M79.386 23.067H95.24a3.3 3.3 0 0 0 3.14-3.434 3.3 3.3 0 0 0-3.14-3.437H65.817"/><path data-name="Path 1774" d="M68.673 8.778h-5.5s-6.785 0-7.991 5.088l-20.5.311"/><path data-name="Path 1775" d="M77.832 36.804h12.85a3.3 3.3 0 0 1 3.136 3.434 3.3 3.3 0 0 1-3.136 3.437H62.555s-7.905.5-9.617-2-6.2-2.334-6.2-2.334H34.679"/><path data-name="Path 1776" d="M90.679 82.131v13.38a3.3 3.3 0 0 1-3.434 3.136 3.3 3.3 0 0 1-3.437-3.136V78.228"/><path data-name="Path 1777" d="M83.808 82.715v15.853a3.3 3.3 0 0 1-3.434 3.14 3.3 3.3 0 0 1-3.437-3.14V78.225"/><path data-name="Path 1778" d="M76.937 80.09v15.854a3.3 3.3 0 0 1-3.433 3.14 3.3 3.3 0 0 1-3.437-3.14V66.621"/><path data-name="Path 1779" d="M62.653 69.378v-5.5s0-6.785 5.088-7.991V44.758"/><path data-name="Path 1780" d="M90.678 78.536v12.85a3.45 3.45 0 0 0 6.871 0V63.259s.5-7.905-2-9.617-2.334-6.2-2.334-6.2v-3.728"/><path data-name="Line 105" d="M68.675 15.048V1.79"/><path data-name="Path 1781" d="M21.367 72.213H7.987a3.3 3.3 0 0 0-3.136 3.43 3.3 3.3 0 0 0 3.136 3.437h17.282"/><path data-name="Path 1782" d="M20.783 79.084H4.93a3.3 3.3 0 0 0-3.14 3.434 3.3 3.3 0 0 0 3.14 3.437h20.34"/><path data-name="Path 1783" d="M23.404 85.951H7.551a3.3 3.3 0 0 0-3.14 3.434 3.3 3.3 0 0 0 3.14 3.437h33.912"/><path data-name="Path 1784" d="M37.926 100.24h1.686s6.788 0 7.995-5.088l20.5-.311"/><path data-name="Path 1785" d="M24.958 72.214h-12.85a3.3 3.3 0 0 1-3.136-3.433 3.3 3.3 0 0 1 3.136-3.438h28.127s7.905-.5 9.617 2 6.2 2.334 6.2 2.334h12.059"/><path data-name="Line 106" d="M37.716 92.822v13.698"/></g></g></g></svg>