<svg xmlns="http://www.w3.org/2000/svg" width="23.128" height="22.998"><path d="M20.517 22.498a1.925 1.925 0 0 1-1.43-.616l-4.621-4.992a1.233 1.233 0 0 0-1.469-.255 8.414 8.414 0 0 1-3.942.969 8.746 8.746 0 0 1-1.151-.076 8.562 8.562 0 0 1-7.288-7.036 8.654 8.654 0 0 1 .214-3.8A8.554 8.554 0 0 1 9.047.505a8.982 8.982 0 0 1 1.449.119 8.556 8.556 0 0 1 6.116 12.413 1.241 1.241 0 0 0 .263 1.484l4.915 4.468a2.057 2.057 0 0 1 .309 2.753 2.007 2.007 0 0 1-1.582.756Zm-11.384-20a6.633 6.633 0 0 0-.89 13.207 6.884 6.884 0 0 0 .89.059 6.646 6.646 0 0 0 3.062-.752 20.476 20.476 0 0 0 2.808-2.8 6.634 6.634 0 0 0-4.746-9.625 6.942 6.942 0 0 0-1.12-.087Z" stroke="rgba(0,0,0,0)" stroke-miterlimit="10"/></svg>