<svg xmlns="http://www.w3.org/2000/svg" width="130" height="130"><defs><clipPath id="a"><path transform="translate(330 4751)" fill="none" d="M0 0h130v130H0z"/></clipPath><clipPath id="c"><path data-name="Rectangle 411" fill="none" stroke="#7c2529" stroke-width="3" d="M-.443-.443h88v88h-88z"/></clipPath><linearGradient id="b" x1=".5" x2=".487" y2="1.718" gradientUnits="objectBoundingBox"><stop offset="0" stop-color="#f1be48"/><stop offset="1" stop-color="#c8102e"/></linearGradient></defs><g transform="translate(-330 -4751)" clip-path="url(#a)"><path data-name="Path 1674" d="m-8200.765-2771.6 41.635 3.479 38.279 24.986h-13.211l-11.4 24.228-17.54-.876-22.149-7.854-13.328-10.406 2.931-9.4 2.413-17.634Z" transform="translate(8556.924 7546.724)" fill="url(#b)"/><g data-name="Group 849"><g data-name="Group 848" transform="translate(351.443 4772.443)" clip-path="url(#c)" fill="none" stroke="#7c2529" stroke-miterlimit="10" stroke-width="3"><path data-name="Path 1642" d="M40.068 28.569 2.343 2.512a.121.121 0 0 1 .078-.22L47.413 6.13l37.354 24.883a.12.12 0 0 1-.073.22Z" stroke-linecap="square"/><path data-name="Path 1643" d="M66.51 80.347a4.475 4.475 0 1 1-8.95 0c0-2.471 4.475-6.712 4.475-6.712s4.475 4.24 4.475 6.712Z" stroke-linecap="square"/><path data-name="Path 1644" d="m43.556 16.756 18.482 13.122v43.754" stroke-linecap="square"/><path data-name="Path 1645" d="M62.04 53.581c-4.1 1.353-13.746 4.026-30.747-1.949-8.699-3.054-19.881-10.443-23.755-15.163l2.7-10.137"/><path data-name="Path 1646" d="M62.039 43.819c-5.213 1.417-15.053 2.714-27.817-1.875-15.617-5.621-23.984-15.612-23.984-15.612l1.949-17.024"/><path data-name="Line 81" d="m72.259 30.489-4.856 9.45"/></g></g></g></svg>