<svg xmlns="http://www.w3.org/2000/svg" xmlns:xlink="http://www.w3.org/1999/xlink" width="130" height="130"><defs><linearGradient id="a" x1=".5" x2=".5" y2="1.689" gradientUnits="objectBoundingBox"><stop offset="0" stop-color="#f1be48"/><stop offset="1" stop-color="#c8102e"/></linearGradient><linearGradient id="c" y2="2.035" xlink:href="#a"/><linearGradient id="d" y2="1.67" xlink:href="#a"/><clipPath id="b"><path transform="translate(276 3208.399)" fill="none" d="M0 0h130v130H0z"/></clipPath><clipPath id="e"><path data-name="Rectangle 374" fill="none" stroke="#7c2529" stroke-width="3" d="M0 0h94.049v93.446H0z"/></clipPath></defs><g data-name="ICON–Admission_Tution" transform="translate(-276 -3208.399)" clip-path="url(#b)"><path data-name="Path 1660" d="M0 0h29.047v-11.83l22.849.987L52.688 0H81v62H0Z" transform="translate(300.049 3257.021)" fill="url(#a)"/><g data-name="Rectangle 414" fill="#fff" stroke="#707070"><path stroke="none" d="M313.049 3283.021h72v34h-72z"/><path fill="none" d="M313.549 3283.521h71v33h-71z"/></g><path data-name="Path 1658" d="m-8750.975-2155.041-15.214 14.822h30.544Z" transform="translate(9092 5385.399)" fill="url(#c)"/><path data-name="Path 1657" d="M-8795.255-2130.031v14.589h32.116l-3.921-14.589Z" transform="translate(9147.967 5385.068)" fill="url(#d)"/><path data-name="Path 1656" d="m-8790.671-2130.031-4.584 14.589h32.116v-14.589Z" transform="translate(9092 5385.399)" fill="url(#d)"/><path data-name="Path 1653" d="M352.971 3273.475v-27.741h-23.892v27.741" fill="none" stroke="#7c2529" stroke-linecap="square" stroke-miterlimit="10" stroke-width="3"/><path data-name="Path 1654" d="M380.846 3273.475v-4.01h-27.873" fill="none" stroke="#7c2529" stroke-linecap="square" stroke-miterlimit="10" stroke-width="3"/><g data-name="Group 852" fill="none" stroke="#7c2529" stroke-miterlimit="10" stroke-width="3"><path data-name="Path 1544" d="m341.025 3229.806-15.93 15.594v.336h31.859v-.336Z"/><path data-name="Path 1545" d="M384.828 3269.466h-31.859v-14h27.878Z"/><path data-name="Path 1546" d="M297.223 3317.411h3.981v-47.944" stroke-linecap="square"/><path data-name="Path 1547" d="M297.223 3269.466h31.859v-14h-27.878Z"/></g><path data-name="Line 89" fill="none" stroke="#fff" stroke-miterlimit="10" stroke-width="3" d="M341.026 3257.459v4.867"/><path data-name="Line 90" fill="none" stroke="#fff" stroke-miterlimit="10" stroke-width="3" d="M341.026 3267.193v4.867"/><path data-name="Path 1655" d="M366.909 3245.734h13.939v-.481l-2.8-4.5 2.8-4.225v-.75h-13.939Z" fill="none" stroke="#7c2529" stroke-linecap="square" stroke-miterlimit="10" stroke-width="3"/><path data-name="Line 91" fill="none" stroke="#7c2529" stroke-miterlimit="10" stroke-width="3" d="M366.908 3245.574v16.752"/><g data-name="Group 853"><g data-name="Group 743" clip-path="url(#e)" fill="none" stroke="#7c2529" stroke-miterlimit="10" stroke-width="3" transform="translate(294 3226.399)"><path data-name="Rectangle 373" d="M19.77 56.944h71.058v34.069H19.77z"/><path data-name="Path 1549" d="M90.827 67.88a10.936 10.936 0 0 1-10.936-10.936"/><path data-name="Path 1550" d="M90.827 80.077a10.936 10.936 0 0 0-10.936 10.936"/><path data-name="Path 1551" d="M19.77 67.88a10.936 10.936 0 0 0 10.938-10.936"/><path data-name="Path 1552" d="M19.77 80.077a10.936 10.936 0 0 1 10.938 10.936"/><path data-name="Line 32" d="M74.141 73.978h4.867"/><path data-name="Line 33" d="M31.59 73.978h4.867"/><circle data-name="Ellipse 40" cx="7.3" cy="7.3" r="7.3" transform="translate(47.999 66.677)"/><path data-name="Line 34" stroke-linecap="square" d="M7.205 91.012h2.833"/></g></g></g></svg>