<svg xmlns="http://www.w3.org/2000/svg" width="130" height="130"><defs><clipPath id="a"><path transform="translate(763 4751)" fill="none" d="M0 0h130v130H0z"/></clipPath><clipPath id="c"><path data-name="Rectangle 412" fill="none" stroke="#7c2529" stroke-width="3" d="M0 0h88.604v88.604H0z"/></clipPath><linearGradient id="b" x1=".5" x2=".5" y2="1.502" gradientUnits="objectBoundingBox"><stop offset="0" stop-color="#f1be48"/><stop offset="1" stop-color="#c8102e"/></linearGradient></defs><g transform="translate(-763 -4751)" clip-path="url(#a)"><path data-name="Rectangle 418" transform="translate(785.768 4771.995)" fill="url(#b)" d="M0 0h85.822v67.584H0z"/><path data-name="Path 1676" d="M820.273 4859.531v-25.378l1.775-5.825 4.686-3.046h5.64l3.948 5.5v28.745l-7.863-3.875Z" fill="#fff"/><g data-name="Group 851"><g data-name="Group 850" clip-path="url(#c)" fill="none" stroke-miterlimit="10" stroke-width="3" transform="translate(783.995 4771.995)"><path data-name="Path 1647" d="M35.869 66.692H1.198V1.197h86.209v65.5h-34.67" stroke="#7c2529"/><circle data-name="Ellipse 49" cx="8.381" cy="8.381" r="8.381" transform="translate(35.921 52.686)" stroke="#7c2529"/><path data-name="Line 82" stroke="#fff" d="M20.355 33.529h47.894"/><path data-name="Line 83" stroke="#fff" d="M25.144 43.108h38.315"/><path data-name="Line 84" stroke="#fff" d="M34.723 23.95h19.158"/><path data-name="Path 1648" d="M52.684 61.068v26.337h-.268l-8.113-4.382-8.133 4.382h-.249V61.068" stroke="#7c2529"/><path data-name="Line 85" stroke="#fff" d="M75.342 10.776h4.789"/><path data-name="Path 1649" d="M66.918 8.472a13.212 13.212 0 0 0 13.214 13.214" stroke="#fff"/><path data-name="Line 86" stroke="#fff" d="M75.342 57.097h4.789"/><path data-name="Path 1650" d="M66.918 59.398a13.216 13.216 0 0 1 13.214-13.214" stroke="#fff"/><path data-name="Line 87" stroke="#fff" d="M13.158 10.776H8.369"/><path data-name="Path 1651" d="M21.581 8.472A13.212 13.212 0 0 1 8.367 21.686" stroke="#fff"/><path data-name="Line 88" stroke="#fff" d="M13.158 57.097H8.369"/><path data-name="Path 1652" d="M21.581 59.398A13.216 13.216 0 0 0 8.367 46.184" stroke="#fff"/></g></g></g></svg>