<svg xmlns="http://www.w3.org/2000/svg" width="130" height="130"><defs><clipPath id="a"><path transform="translate(1193 4751)" fill="none" d="M0 0h130v130H0z"/></clipPath><clipPath id="c"><path data-name="Rectangle 400" fill="none" stroke="#7c2529" stroke-width="3" d="M.479.479h87v87h-87z"/></clipPath><linearGradient id="b" x1=".5" x2=".5" y2="1.42" gradientUnits="objectBoundingBox"><stop offset="0" stop-color="#f1be48"/><stop offset="1" stop-color="#c8102e"/></linearGradient></defs><g transform="translate(-1193 -4751)" clip-path="url(#a)"><path data-name="Path 1675" d="m-4004.079-2469.884 14.239 1.009 1.949 3.083 2.657 4.552h18.952l2.366 6.051v4.131l-5.308 2.7h-4.257l-1.59 6.9-4.577 4.638h-28.28l5.369 11.213 12.72 12.109 16.358 5.388 14.753-1.1 17.487-8.58 8.274-9.76h-15.568l-5.532-3.527-1.749-5.74 3.326-5.361 6.753-1.375h19.019v-13.209l-2.768-10.065-8.4-13.128-3.354 8.74h-7.294l-10.193-3.753.992-9.9-.992-2.6-5.946-4.022h-11.568l-14.358 5.905-9.157 8.749Z" transform="translate(5226.883 7266.3)" fill="url(#b)"/><g data-name="Group 817"><g data-name="Group 816" transform="translate(1214.521 4772.521)" clip-path="url(#c)" fill="none" stroke="#7c2529" stroke-miterlimit="10" stroke-width="3"><path data-name="Path 1609" d="m54.15 6.38.506 6.226-.506 5.922a16.9 16.9 0 0 0 7.975 4.2 20.2 20.2 0 0 0 4.51.539 14.06 14.06 0 0 0 6.006-1.249l1.351-5.842 1.993-4.663"/><path data-name="Path 1610" d="m81.911 21.56-2.968-10.232 5.458-.307v-.019L66.778 2.321l-19.643.07v.023l17.353 9.815 14.45-.9"/><path data-name="Path 1611" d="M81.685 25.75A41.809 41.809 0 1 1 40.531 2.474"/><path data-name="Path 1612" d="M6.837 25.21h13.624a4.124 4.124 0 0 1 4.125 4.125 3.453 3.453 0 0 0 3.451 3.447h14.371a6.482 6.482 0 0 1 0 12.964h-.748a3.787 3.787 0 0 0-3.79 3.786 7.553 7.553 0 0 1-7.553 7.553H5.235"/><path data-name="Path 1613" d="M84.407 50.502H66.064c-5.43 0-9.833 3.674-9.833 8.208s4.4 8.212 9.833 8.212h13.1"/></g></g></g></svg>