<svg class="video-play-icon" width="82" height="82" xmlns="http://www.w3.org/2000/svg"><g class="outer-circle" fill="none" fill-rule="evenodd"><g opacity=".377" fill="#FFF" fill-rule="nonzero" transform="translate(1 1)"><circle cx="40" cy="40" r="40"/><path d="M40 0C17.909 0 0 17.909 0 40s17.909 40 40 40 40-17.909 40-40S62.091 0 40 0Zm0 1c21.54 0 39 17.46 39 39S61.54 79 40 79 1 61.54 1 40 18.46 1 40 1Z"/></g><path d="M24 22.818h35V57.93H24z"/><path class="arrow" d="m59.986 39.288-28.433-17.68c-2.073-1.363-3.767-.36-3.767 2.229V58.16c0 2.593 1.694 3.593 3.767 2.229l28.433-17.68c.565-.4.934-1.022 1.014-1.71a2.438 2.438 0 0 0-1.01-1.707l-.004-.004Z" fill="#FFF" fill-rule="nonzero"/></g></svg>